<mxfile host="65bd71144e">
    <diagram id="x-lz_e36lYz7MYSZY7CB" name="PÃ¡gina-1">
        <mxGraphModel dx="5106" dy="3837" grid="1" gridSize="10" guides="1" tooltips="1" connect="1" arrows="1" fold="1" page="1" pageScale="1" pageWidth="827" pageHeight="1169" math="0" shadow="0">
            <root>
                <mxCell id="0"/>
                <mxCell id="1" parent="0"/>
                <mxCell id="33" value="&lt;font size=&quot;1&quot; style=&quot;&quot;&gt;&lt;b style=&quot;font-size: 60px;&quot;&gt;Usuario&lt;/b&gt;&lt;/font&gt;" style="outlineConnect=0;dashed=0;verticalLabelPosition=bottom;verticalAlign=top;align=center;html=1;shape=mxgraph.aws3.user;fillColor=#1ba1e2;rounded=0;shadow=1;glass=0;labelBackgroundColor=none;labelBorderColor=none;sketch=0;fillStyle=auto;strokeWidth=5;fontSize=41;fontColor=#ffffff;strokeColor=#006EAF;" vertex="1" parent="1">
                    <mxGeometry x="-1020" y="-350" width="318" height="480" as="geometry"/>
                </mxCell>
                <mxCell id="49" value="" style="whiteSpace=wrap;html=1;aspect=fixed;rounded=0;shadow=1;glass=0;labelBackgroundColor=none;labelBorderColor=none;sketch=0;fillStyle=auto;strokeWidth=5;fontSize=41;fillColor=#dae8fc;strokeColor=#6c8ebf;gradientColor=none;" vertex="1" parent="1">
                    <mxGeometry x="-580" y="-590" width="2380" height="2380" as="geometry"/>
                </mxCell>
                <mxCell id="36" style="edgeStyle=none;html=1;entryX=0;entryY=0.5;entryDx=0;entryDy=0;fontSize=41;shape=flexArrow;strokeWidth=23;fillColor=#009999;strokeColor=#009999;gradientColor=none;" edge="1" parent="1" source="6" target="13">
                    <mxGeometry relative="1" as="geometry"/>
                </mxCell>
                <mxCell id="40" style="edgeStyle=none;html=1;fontSize=41;" edge="1" parent="1" source="6" target="25">
                    <mxGeometry relative="1" as="geometry"/>
                </mxCell>
                <mxCell id="6" value="CONTROLADOR&lt;br&gt;" style="swimlane;whiteSpace=wrap;html=1;fontSize=36;startSize=80;fillColor=#a20025;fontColor=#ffffff;strokeColor=#6F0000;shadow=1;swimlaneFillColor=none;labelBorderColor=none;labelBackgroundColor=none;rounded=0;glass=0;perimeterSpacing=10;fillStyle=auto;strokeWidth=5;" vertex="1" parent="1">
                    <mxGeometry x="-330" y="280" width="580" height="700" as="geometry"/>
                </mxCell>
                <mxCell id="9" value="InicioController" style="rounded=0;whiteSpace=wrap;html=1;shadow=1;glass=0;labelBackgroundColor=none;labelBorderColor=none;sketch=0;fillStyle=auto;strokeWidth=5;fontSize=36;fillColor=#a20025;fontColor=#ffffff;strokeColor=#6F0000;" vertex="1" parent="6">
                    <mxGeometry x="114" y="130" width="356" height="110" as="geometry"/>
                </mxCell>
                <mxCell id="10" value="ItemController" style="rounded=0;whiteSpace=wrap;html=1;shadow=1;glass=0;labelBackgroundColor=none;labelBorderColor=none;sketch=0;fillStyle=auto;strokeWidth=5;fontSize=36;fillColor=#a20025;fontColor=#ffffff;strokeColor=#6F0000;" vertex="1" parent="6">
                    <mxGeometry x="114" y="270" width="356" height="110" as="geometry"/>
                </mxCell>
                <mxCell id="11" value="PersonaController" style="rounded=0;whiteSpace=wrap;html=1;shadow=1;glass=0;labelBackgroundColor=none;labelBorderColor=none;sketch=0;fillStyle=auto;strokeWidth=5;fontSize=36;fillColor=#a20025;fontColor=#ffffff;strokeColor=#6F0000;" vertex="1" parent="6">
                    <mxGeometry x="114" y="400" width="356" height="110" as="geometry"/>
                </mxCell>
                <mxCell id="12" value="FacturaController" style="rounded=0;whiteSpace=wrap;html=1;shadow=1;glass=0;labelBackgroundColor=none;labelBorderColor=none;sketch=0;fillStyle=auto;strokeWidth=5;fontSize=36;fillColor=#a20025;fontColor=#ffffff;strokeColor=#6F0000;" vertex="1" parent="6">
                    <mxGeometry x="114" y="540" width="356" height="110" as="geometry"/>
                </mxCell>
                <mxCell id="13" value="MODELO" style="swimlane;whiteSpace=wrap;html=1;fontSize=36;startSize=80;fillColor=#647687;fontColor=#ffffff;strokeColor=#314354;shadow=1;swimlaneFillColor=none;labelBorderColor=none;labelBackgroundColor=none;rounded=0;glass=0;perimeterSpacing=10;fillStyle=auto;strokeWidth=5;" vertex="1" parent="1">
                    <mxGeometry x="800" y="265" width="580" height="700" as="geometry"/>
                </mxCell>
                <mxCell id="14" value="Item" style="rounded=0;whiteSpace=wrap;html=1;shadow=1;glass=0;labelBackgroundColor=none;labelBorderColor=none;sketch=0;fillStyle=auto;strokeWidth=5;fontSize=36;fillColor=#647687;fontColor=#ffffff;strokeColor=#314354;" vertex="1" parent="13">
                    <mxGeometry x="112" y="140" width="356" height="110" as="geometry"/>
                </mxCell>
                <mxCell id="18" value="Persona" style="rounded=0;whiteSpace=wrap;html=1;shadow=1;glass=0;labelBackgroundColor=none;labelBorderColor=none;sketch=0;fillStyle=auto;strokeWidth=5;fontSize=36;fillColor=#647687;fontColor=#ffffff;strokeColor=#314354;" vertex="1" parent="13">
                    <mxGeometry x="112" y="300" width="356" height="110" as="geometry"/>
                </mxCell>
                <mxCell id="19" value="Factura" style="rounded=0;whiteSpace=wrap;html=1;shadow=1;glass=0;labelBackgroundColor=none;labelBorderColor=none;sketch=0;fillStyle=auto;strokeWidth=5;fontSize=36;fillColor=#647687;fontColor=#ffffff;strokeColor=#314354;" vertex="1" parent="13">
                    <mxGeometry x="112" y="475" width="356" height="110" as="geometry"/>
                </mxCell>
                <mxCell id="25" value="UTILIDADES" style="swimlane;whiteSpace=wrap;html=1;fontSize=36;startSize=80;fillColor=#ffcd28;strokeColor=#d79b00;shadow=1;swimlaneFillColor=none;labelBorderColor=none;labelBackgroundColor=none;rounded=0;glass=0;perimeterSpacing=10;fillStyle=auto;strokeWidth=5;gradientColor=#ffa500;" vertex="1" parent="1">
                    <mxGeometry x="-290" y="1330" width="480" height="200" as="geometry"/>
                </mxCell>
                <mxCell id="39" style="edgeStyle=none;html=1;entryX=1;entryY=0.5;entryDx=0;entryDy=0;fontSize=41;" edge="1" parent="1" source="29" target="25">
                    <mxGeometry relative="1" as="geometry"/>
                </mxCell>
                <mxCell id="42" style="edgeStyle=none;html=1;entryX=1;entryY=0;entryDx=0;entryDy=0;fontSize=41;" edge="1" parent="1">
                    <mxGeometry relative="1" as="geometry">
                        <mxPoint x="570" y="938.9552238805973" as="sourcePoint"/>
                        <mxPoint x="200" y="1320" as="targetPoint"/>
                    </mxGeometry>
                </mxCell>
                <mxCell id="43" style="edgeStyle=none;html=1;fontSize=41;shape=flexArrow;strokeWidth=23;fillColor=#009999;strokeColor=#009999;gradientColor=none;entryX=0.5;entryY=0;entryDx=0;entryDy=0;exitX=0.5;exitY=1;exitDx=0;exitDy=0;" edge="1" parent="1" source="13" target="29">
                    <mxGeometry relative="1" as="geometry">
                        <mxPoint x="1060" y="970" as="sourcePoint"/>
                        <mxPoint x="871.62" y="1150" as="targetPoint"/>
                    </mxGeometry>
                </mxCell>
                <mxCell id="44" style="edgeStyle=none;html=1;entryX=1;entryY=0;entryDx=0;entryDy=0;fontSize=41;shape=flexArrow;strokeWidth=23;fillColor=#009999;strokeColor=#009999;gradientColor=none;exitX=0;exitY=0.75;exitDx=0;exitDy=0;" edge="1" parent="1" source="13">
                    <mxGeometry relative="1" as="geometry">
                        <mxPoint x="571.62" y="938.9552238805973" as="sourcePoint"/>
                        <mxPoint x="201.62" y="1320" as="targetPoint"/>
                    </mxGeometry>
                </mxCell>
                <mxCell id="45" style="edgeStyle=none;html=1;entryX=1;entryY=0.5;entryDx=0;entryDy=0;fontSize=41;shape=flexArrow;strokeWidth=23;fillColor=#009999;strokeColor=#009999;gradientColor=none;" edge="1" parent="1">
                    <mxGeometry relative="1" as="geometry">
                        <mxPoint x="586.62" y="1427.126865671642" as="sourcePoint"/>
                        <mxPoint x="201.62" y="1430" as="targetPoint"/>
                    </mxGeometry>
                </mxCell>
                <mxCell id="46" style="edgeStyle=none;html=1;fontSize=41;shape=flexArrow;strokeWidth=23;fillColor=#009999;strokeColor=#009999;gradientColor=none;" edge="1" parent="1">
                    <mxGeometry relative="1" as="geometry">
                        <mxPoint x="-42.88" y="990.0000000000005" as="sourcePoint"/>
                        <mxPoint x="-47.005" y="1320" as="targetPoint"/>
                    </mxGeometry>
                </mxCell>
                <mxCell id="29" value="DATOS" style="swimlane;whiteSpace=wrap;html=1;fontSize=36;startSize=80;fillColor=#008a00;strokeColor=#005700;shadow=1;swimlaneFillColor=none;labelBorderColor=none;labelBackgroundColor=none;rounded=0;glass=0;perimeterSpacing=10;fillStyle=auto;strokeWidth=5;fontColor=#ffffff;" vertex="1" parent="1">
                    <mxGeometry x="700" y="1169" width="740" height="540" as="geometry"/>
                </mxCell>
                <mxCell id="23" value="&lt;font style=&quot;font-size: 41px;&quot;&gt;&lt;b&gt;SQL SERVER&lt;/b&gt;&lt;/font&gt;" style="aspect=fixed;html=1;points=[];align=center;image;fontSize=12;image=img/lib/azure2/databases/SQL_Server.svg;rounded=0;shadow=1;glass=0;labelBackgroundColor=none;labelBorderColor=none;sketch=0;fillStyle=auto;strokeWidth=5;gradientColor=none;" vertex="1" parent="29">
                    <mxGeometry x="260" y="161" width="304" height="304" as="geometry"/>
                </mxCell>
                <mxCell id="34" style="edgeStyle=none;html=1;entryX=0;entryY=0.5;entryDx=0;entryDy=0;fontSize=41;shape=flexArrow;strokeWidth=23;fillColor=#009999;strokeColor=#009999;gradientColor=none;" edge="1" parent="1" source="33" target="7">
                    <mxGeometry relative="1" as="geometry"/>
                </mxCell>
                <mxCell id="7" value="VISTA" style="swimlane;whiteSpace=wrap;html=1;fontSize=36;startSize=80;fillColor=#0050ef;fontColor=#ffffff;strokeColor=#001DBC;shadow=1;gradientColor=none;swimlaneFillColor=none;labelBorderColor=none;labelBackgroundColor=none;rounded=0;glass=0;perimeterSpacing=10;fillStyle=auto;strokeWidth=5;" vertex="1" parent="1">
                    <mxGeometry x="280" y="-340" width="480" height="470" as="geometry"/>
                </mxCell>
                <mxCell id="2" value="" style="aspect=fixed;perimeter=ellipsePerimeter;html=1;align=center;shadow=0;dashed=0;spacingTop=3;image;image=img/lib/active_directory/home_page.svg;" vertex="1" parent="7">
                    <mxGeometry x="60" y="110" width="366.63" height="330" as="geometry"/>
                </mxCell>
                <mxCell id="51" style="edgeStyle=none;html=1;entryX=0.385;entryY=0.014;entryDx=0;entryDy=0;fontSize=41;shape=flexArrow;strokeWidth=23;fillColor=#009999;strokeColor=#009999;gradientColor=none;entryPerimeter=0;" edge="1" parent="1" source="7" target="6">
                    <mxGeometry relative="1" as="geometry">
                        <mxPoint x="150" y="108.06818181818153" as="sourcePoint"/>
                        <mxPoint x="-40" y="270" as="targetPoint"/>
                        <Array as="points">
                            <mxPoint x="60" y="180"/>
                        </Array>
                    </mxGeometry>
                </mxCell>
                <mxCell id="53" value="&lt;font style=&quot;font-size: 120px;&quot;&gt;SISTEMA DE FACTURACION&lt;/font&gt;" style="text;html=1;strokeColor=#009999;fillColor=#009999;align=center;verticalAlign=middle;whiteSpace=wrap;rounded=0;shadow=1;glass=0;labelBackgroundColor=none;labelBorderColor=none;sketch=0;fillStyle=auto;strokeWidth=11;fontSize=41;fontColor=#ffffff;" vertex="1" parent="1">
                    <mxGeometry x="-570" y="-580" width="2360" height="190" as="geometry"/>
                </mxCell>
            </root>
        </mxGraphModel>
    </diagram>
</mxfile>